<?xml version="1.0" encoding="UTF-8"?>
<svg width="68px" height="25px" viewBox="0 0 68 25" version="1.1" xmlns="http://www.w3.org/2000/svg" xmlns:xlink="http://www.w3.org/1999/xlink">
    <!-- Generator: Sketch 51.2 (57519) - http://www.bohemiancoding.com/sketch -->
    <title>lb-dots-pos</title>
    <desc>Created with Sketch.</desc>
    <defs></defs>
    <g id="lb-dots-pos" stroke="none" stroke-width="1" fill="none" fill-rule="evenodd">
        <g fill-rule="nonzero">
            <ellipse id="Oval-1-Copy" fill="#00E054" cx="34.0263158" cy="12.5" rx="12.5263158" ry="12.5"></ellipse>
            <path d="M23.2658081,18.8558296 C21.089841,22.533649 17.0829441,25 12.5,25 C5.59644063,25 0,19.4035594 0,12.5 C0,5.59644063 5.59644063,0 12.5,0 C17.0829441,0 21.089841,2.46635101 23.2658081,6.14417037 L23.2658081,18.8558296 Z" id="Oval-1" fill="#FF8000"></path>
            <path d="M44.7636719,6.09460471 C46.9462246,2.44420879 50.9376745,0 55.5,0 C62.4035594,0 68,5.59644063 68,12.5 C68,19.4035594 62.4035594,25 55.5,25 C50.9376745,25 46.9462246,22.5557912 44.7636719,18.9053953 L44.7636719,6.09460471 Z" id="Oval-1-Copy-2" fill="#40BCF4"></path>
            <path d="M44.7744479,18.9233844 C43.6477879,17.0461657 43,14.8487323 43,12.5 C43,10.1512677 43.6477879,7.95383433 44.7744479,6.07661564 C45.9034799,7.95383433 46.5526316,10.1512677 46.5526316,12.5 C46.5526316,14.8487323 45.9034799,17.0461657 44.7744479,18.9233844 Z M23.2518402,6.12062069 C24.3622827,7.98813889 25,10.169596 25,12.5 C25,14.830404 24.3622827,17.0118611 23.2518402,18.8793793 C22.1390599,17.0118611 21.5,14.830404 21.5,12.5 C21.5,10.169596 22.1390599,7.98813889 23.2518402,6.12062069 Z" id="Combined-Shape" fill="#556677"></path>
        </g>
    </g>
</svg>